<svg width="1081" height="1006" viewBox="0 0 1081 1006" fill="none" xmlns="http://www.w3.org/2000/svg">
<path d="M722.106 381.324C703.111 706.327 454.592 880.147 397.323 916.761C340.303 880.147 90.669 706.327 71.963 381.467C129.193 600.774 225.188 663.626 397.323 821.174C569.569 663.218 665.247 601.152 722.106 381.324Z" fill="#0B1F3F"/>
<path d="M722.106 381.324C722.106 216.334 599.236 80.034 440.006 58.954C425.905 57.074 411.516 56.114 396.896 56.114C274.896 56.114 168.586 123.294 112.946 222.674C86.666 269.604 71.686 323.714 71.686 381.324C69.562 408.307 291.626 762.611 396.896 822.032C517.631 754.121 674.403 658.532 721.436 423.623C721.436 423.623 722.562 402.641 722.106 381.324ZM396.896 706.544C381.076 706.544 365.516 705.414 350.296 703.224L358.616 568.504C271.466 550.784 205.876 473.714 205.876 381.324C205.876 372.954 206.416 364.704 207.456 356.614C219.576 262.794 299.766 190.314 396.886 190.314C430.946 190.314 462.936 199.234 490.626 214.864C548.695 247.624 587.905 309.894 587.905 381.324C587.905 473.724 522.305 550.794 435.135 568.504H435.164L443.484 703.224C428.276 705.415 412.716 706.544 396.896 706.544Z" fill="url(#paint0_radial_1_3)"/>
<path d="M397.242 706.687H397.173C381.353 706.687 365.793 705.557 350.572 703.367L358.892 568.647C271.742 550.927 206.152 473.857 206.152 381.467C206.152 373.097 206.692 364.847 207.732 356.757C219.852 262.937 300.043 190.457 397.163 190.457C397.173 190.457 397.173 190.457 397.183 190.457L397.173 56.257C275.173 56.257 168.862 123.437 113.223 222.817C86.943 269.747 71.963 323.857 71.963 381.467C81.1 610.739 301.196 772.829 396.897 822.033L397.242 706.687Z" fill="url(#paint1_radial_1_3)"/>
<path d="M568.638 381.317C568.638 476.176 491.736 553.058 396.896 553.058C302.055 553.058 225.154 476.176 225.154 381.317C225.154 380.829 225.154 380.322 225.178 379.837C225.956 285.675 302.542 209.596 396.896 209.596C434.942 209.596 470.121 221.976 498.599 242.934C541.068 274.203 568.638 324.528 568.638 381.317Z" fill="white" stroke="black" stroke-miterlimit="10"/>
<path d="M473.044 381.323C473.044 423.382 438.946 457.47 396.896 457.47C354.846 457.47 320.748 423.382 320.748 381.323C320.748 381.107 320.748 380.882 320.759 380.667C321.104 338.917 355.061 305.185 396.896 305.185C413.765 305.185 429.363 310.674 441.99 319.967C460.82 333.83 473.044 356.143 473.044 381.323Z" fill="black" stroke="black" stroke-miterlimit="10"/>
<path opacity="0.3" d="M484.416 244.334C476.517 271.074 462.927 295.374 445.036 315.824C412.986 352.484 367.146 376.784 315.617 380.624C310.857 380.984 306.047 381.164 301.197 381.164C277.847 381.164 255.467 376.974 234.787 369.294C240.937 285.144 311.177 218.784 396.897 218.784C429.116 218.784 459.146 228.154 484.416 244.334Z" fill="#999999" stroke="black" stroke-miterlimit="10"/>
<path d="M587.557 381.242C587.557 309.812 548.347 247.542 490.278 214.782C462.588 199.152 430.597 190.232 396.538 190.232C299.418 190.232 219.228 262.712 207.108 356.532C206.068 364.622 205.528 372.872 205.528 381.242C205.528 473.632 271.118 550.702 358.268 568.422L347.392 744.481C359.602 754.122 380.147 763.599 396.195 763.598C413.272 763.597 430.953 759.431 445.693 744.481L434.818 568.422H434.789C521.958 550.712 587.557 473.642 587.557 381.242ZM396.547 543.792C306.777 543.792 233.997 471.022 233.997 381.242C233.997 377.192 234.147 373.182 234.437 369.212C240.587 285.062 310.827 218.702 396.547 218.702C428.767 218.702 458.797 228.072 484.067 244.252C529.187 273.132 559.097 323.692 559.097 381.242C559.097 471.022 486.317 543.792 396.547 543.792Z" fill="#0B1F3F"/>
<path d="M574.5 916V832.75H540.9V810.25H635.7V832.75H602.1V916H574.5ZM692.933 917.65C677.533 917.65 665.733 913.75 657.533 905.95C649.433 898.15 645.383 886.5 645.383 871V810.25H672.983V871.3C672.983 879 674.683 884.8 678.083 888.7C681.483 892.6 686.433 894.55 692.933 894.55C699.333 894.55 704.233 892.6 707.633 888.7C711.033 884.8 712.733 879 712.733 871.3V810.25H739.883V871C739.883 886.5 735.883 898.15 727.883 905.95C719.983 913.75 708.333 917.65 692.933 917.65ZM758.34 916V810.25H802.14C814.34 810.25 824.74 812.35 833.34 816.55C841.94 820.65 848.49 826.65 852.99 834.55C857.59 842.35 859.89 851.85 859.89 863.05C859.89 874.25 857.59 883.8 852.99 891.7C848.49 899.6 841.94 905.65 833.34 909.85C824.74 913.95 814.34 916 802.14 916H758.34ZM785.94 893.65H800.34C810.84 893.65 818.59 891.15 823.59 886.15C828.69 881.05 831.24 873.35 831.24 863.05C831.24 852.65 828.69 845 823.59 840.1C818.49 835.1 810.74 832.6 800.34 832.6H785.94V893.65ZM927.26 917.65C919.26 917.65 911.96 916.35 905.36 913.75C898.76 911.15 893.06 907.45 888.26 902.65C883.56 897.75 879.91 891.95 877.31 885.25C874.81 878.55 873.56 871.15 873.56 863.05C873.56 854.85 874.81 847.4 877.31 840.7C879.91 834 883.56 828.25 888.26 823.45C893.06 818.65 898.76 815 905.36 812.5C911.96 809.9 919.26 808.6 927.26 808.6C935.26 808.6 942.56 809.9 949.16 812.5C955.76 815 961.41 818.65 966.11 823.45C970.91 828.25 974.56 834 977.06 840.7C979.66 847.3 980.96 854.7 980.96 862.9C980.96 871.2 979.66 878.7 977.06 885.4C974.56 892.1 970.91 897.9 966.11 902.8C961.41 907.6 955.76 911.3 949.16 913.9C942.56 916.4 935.26 917.65 927.26 917.65ZM927.26 894.55C932.56 894.55 937.06 893.3 940.76 890.8C944.46 888.3 947.31 884.7 949.31 880C951.31 875.3 952.31 869.65 952.31 863.05C952.31 856.45 951.31 850.8 949.31 846.1C947.41 841.4 944.56 837.85 940.76 835.45C937.06 832.95 932.56 831.7 927.26 831.7C922.06 831.7 917.56 832.95 913.76 835.45C910.06 837.85 907.21 841.4 905.21 846.1C903.21 850.8 902.21 856.45 902.21 863.05C902.21 869.65 903.16 875.3 905.06 880C907.06 884.7 909.96 888.3 913.76 890.8C917.56 893.3 922.06 894.55 927.26 894.55Z" fill="#0B1F3F"/>
<path d="M601.568 779L655.712 688.76H664.672L690.016 779H679.776L672.992 753.784L677.088 755.96H622.56L627.808 753.912L612.96 779H601.568ZM658.656 701.048L630.624 748.92L627.808 747.128H674.656L671.712 749.048L658.912 701.048H658.656ZM744.643 780.152C737.048 780.152 730.307 778.701 724.419 775.8C718.616 772.813 714.051 768.333 710.723 762.36C707.395 756.387 705.731 748.835 705.731 739.704C705.731 732.28 706.798 725.411 708.931 719.096C711.064 712.781 714.136 707.277 718.147 702.584C722.243 697.891 727.15 694.221 732.867 691.576C738.67 688.931 745.198 687.608 752.451 687.608C758.766 687.608 764.44 688.632 769.475 690.68C774.595 692.728 778.776 695.544 782.019 699.128L777.283 707.576C773.784 704.077 769.987 701.475 765.891 699.768C761.795 698.061 757.187 697.208 752.067 697.208C744.814 697.208 738.542 699.043 733.251 702.712C728.046 706.381 724.035 711.416 721.219 717.816C718.403 724.131 716.995 731.341 716.995 739.448C716.995 746.787 718.104 752.76 720.323 757.368C722.627 761.976 725.912 765.347 730.179 767.48C734.446 769.528 739.566 770.552 745.539 770.552C750.232 770.552 754.584 769.741 758.595 768.12C762.606 766.499 766.659 763.939 770.755 760.44L774.595 768.888C771.95 771.277 769.006 773.325 765.763 775.032C762.606 776.739 759.235 778.019 755.651 778.872C752.067 779.725 748.398 780.152 744.643 780.152ZM788.272 779L802.608 688.76H813.104L806.704 728.696H860.72L867.12 688.76H877.616L863.28 779H852.784L859.312 737.784H805.296L798.768 779H788.272ZM885.647 779L899.983 688.76H956.943L955.535 697.592H908.815L903.823 728.824H947.983L946.575 737.656H902.415L897.167 770.168H943.887L942.607 779H885.647Z" fill="#0B1F3F"/>
<defs>
<radialGradient id="paint0_radial_1_3" cx="0" cy="0" r="1" gradientUnits="userSpaceOnUse" gradientTransform="translate(376.971 400.586) scale(593.811 593.811)">
<stop stop-color="white"/>
<stop offset="0.1649" stop-color="#FFE9BE"/>
<stop offset="0.3299" stop-color="#FFD685"/>
<stop offset="0.4894" stop-color="#FFC655"/>
<stop offset="0.64" stop-color="#FFB930"/>
<stop offset="0.7794" stop-color="#FFB016"/>
<stop offset="0.9036" stop-color="#FFAB06"/>
<stop offset="1" stop-color="#FFA900"/>
</radialGradient>
<radialGradient id="paint1_radial_1_3" cx="0" cy="0" r="1" gradientUnits="userSpaceOnUse" gradientTransform="translate(258.227 169.118) scale(733.939 733.94)">
<stop stop-color="white"/>
<stop offset="0.0833" stop-color="#FFFFCA"/>
<stop offset="0.169" stop-color="#FFFF9B"/>
<stop offset="0.2601" stop-color="#FFFF71"/>
<stop offset="0.355" stop-color="#FFFF4E"/>
<stop offset="0.4549" stop-color="#FFFF32"/>
<stop offset="0.5614" stop-color="#FFFF1C"/>
<stop offset="0.6776" stop-color="#FFFF0C"/>
<stop offset="0.811" stop-color="#FFFF03"/>
<stop offset="1" stop-color="#FFFF00"/>
</radialGradient>
</defs>
</svg>
