<svg width="126" height="49" viewBox="0 0 126 49" fill="none" xmlns="http://www.w3.org/2000/svg">
<path d="M2.6377 37.9658C5.33294 36.2364 11.3579 34.5756 24.6348 35.1874V48.4531C14.6902 47.5635 8.63015 45.7116 5.0625 44.0869C3.24724 43.2601 2.07779 42.4923 1.36914 41.9413C1.01488 41.6659 0.775321 41.4441 0.62793 41.2958C0.57927 41.2469 0.541197 41.2051 0.511719 41.1728C0.507709 41.1367 0.502413 41.091 0.500977 41.037C0.496473 40.8668 0.513428 40.6125 0.607422 40.3046C0.792483 39.6989 1.29234 38.829 2.6377 37.9658Z" fill="url(#paint0_linear_18_19)" stroke="#FFDF20"/>
<path d="M8.7959 0.5H107.778C117.302 0.5 125.026 8.2392 125.026 17.7891C125.026 22.0093 123.557 26.2528 121.08 29.4395C118.605 32.6234 115.151 34.7227 111.173 34.75C104.711 34.7943 83.1398 34.7943 63.1816 34.7832C53.2032 34.7777 43.6286 34.7696 36.5488 34.7627C33.009 34.7592 30.0927 34.7562 28.0615 34.7539C27.0459 34.7528 26.2514 34.7516 25.7109 34.751C25.4408 34.7507 25.2339 34.7502 25.0947 34.75H24.8955C24.8831 34.7492 24.8646 34.7485 24.8408 34.7471C24.793 34.7443 24.7225 34.7402 24.6309 34.7354C24.4468 34.7256 24.1772 34.7124 23.835 34.6982C23.1506 34.67 22.1738 34.6383 21.002 34.624C18.6596 34.5955 15.5299 34.6371 12.3965 34.9189C9.27223 35.1999 6.10466 35.7227 3.7041 36.6738C2.40363 37.1891 1.26362 37.8588 0.5 38.7285V7.30371C0.500214 5.39066 1.96071 3.6955 3.84375 2.43848C4.77013 1.82008 5.76531 1.33171 6.66016 0.999023C7.56576 0.66234 8.32781 0.500108 8.7959 0.5Z" fill="url(#paint1_linear_18_19)" stroke="#FFDF20"/>
<defs>
<linearGradient id="paint0_linear_18_19" x1="-2.0635e-05" y1="41.7783" x2="25.1348" y2="41.7783" gradientUnits="userSpaceOnUse">
<stop stop-color="#9D1A1A"/>
<stop offset="0.4877" stop-color="#FF2A2A"/>
<stop offset="1" stop-color="#911616"/>
</linearGradient>
<linearGradient id="paint1_linear_18_19" x1="0" y1="20.6495" x2="125.527" y2="20.6495" gradientUnits="userSpaceOnUse">
<stop offset="0.0049" stop-color="#931717"/>
<stop offset="0.0837" stop-color="#FF2A2A"/>
<stop offset="0.1576" stop-color="#C21C1C"/>
<stop offset="0.6207" stop-color="#B71A1A"/>
<stop offset="1" stop-color="#C21C1C"/>
</linearGradient>
</defs>
</svg>
